<svg id="图层_2" data-name="图层 2" xmlns="http://www.w3.org/2000/svg" viewBox="0 0 181.89 181.88"><defs><style>.cls-1,.cls-4{fill:#00458c;}.cls-2{fill:#329a3a;}.cls-3{fill:#064c87;}.cls-3,.cls-4{fill-rule:evenodd;}</style></defs><rect class="cls-1" x="85.06" y="54.46" width="12.83" height="46.41"/><rect class="cls-1" x="51.42" y="107.2" width="12.83" height="20.34"/><polygon class="cls-1" points="81.05 127.54 68.22 127.54 68.22 100.87 64.25 100.87 51.42 100.87 51.42 54.45 64.25 54.45 64.25 81.13 68.22 81.13 81.05 81.13 81.05 127.54"/><rect class="cls-2" x="68.22" y="54.46" width="12.83" height="20.31"/><polygon class="cls-1" points="113.64 127.54 101.91 127.54 85.06 127.54 85.06 107.2 101.91 107.2 101.91 81.13 113.64 81.13 113.64 127.54"/><rect class="cls-1" x="117.63" y="107.2" width="12.83" height="20.34"/><polygon class="cls-1" points="130.46 100.87 117.63 100.87 117.63 74.77 101.91 74.77 101.91 54.46 117.63 54.46 130.46 54.46 130.46 100.87"/><path class="cls-3" d="M372.23,144.3c-.4,0-.81.06-.83-.35-.84-.35-1.86-3.53-1.92-4.34,0-.4.72-1.27.32-1.24a1.44,1.44,0,0,0-.46-.78,1.51,1.51,0,0,1-.49-1.18c-.4,0-.4,0-.83-.35l-.43-.38c-.43-.38-.46-.78-.89-1.16,0-.4-.43-.38-.46-.78a.87.87,0,0,1-.86-.75c-.4,0-2.1-1.08-2.13-1.48-.51-1.6,3.54-1.47,4-.69s-.75.87-.69,1.68c.4,0,.37-.44.78-.47s.77-.46,1.58-.51l.37-.43a1.44,1.44,0,0,0,.78-.47,3.07,3.07,0,0,1,1.55-.92.4.4,0,0,1,.38-.43c.43.38.43.38.45.78a3.3,3.3,0,0,1-2.3,1.79c-.8.06-1.18.49-2,.54a.4.4,0,0,1-.37.44s-.38.43,0,.4a.4.4,0,0,0,.43.38,1.51,1.51,0,0,1,1.18-.49l.8-.05c0-.41.38-.44.78-.46.37-.44.37-.44.78-.47s.38-.43.78-.46c.8,0,1.23.33.86.76a.88.88,0,0,1-.75.86l-.81.06c0,.4-.37.43-.77.46l-.81.05-.4,0a1.4,1.4,0,0,1-.78.46.39.39,0,0,0-.37.43l.4,0c.41,0,.83.34,1.24.32a1.4,1.4,0,0,1,.77-.46c.43.37.06.81.46.78,0,0,.43.37.4,0a1.44,1.44,0,0,1-.46-.78c0-.41.78-.46,1.19-.49l.37-.43.4,0a1.49,1.49,0,0,0,.49,1.18c.83.36,1.95-.94,2.44.24l.09,1.22c-.38.43-.75.86-1.59.51-.43-.37-.06-.8-.86-.75l-.4,0c0,.4-.38.43-.35.84-.37.43-1.23-.32-1.64-.3l-.8.06,0,.41-.4,0c-.38.43-.32,1.24.48,1.19.41,0,.38-.43.35-.84l.4,0c.43.38.49,1.19,1.3,1.13a3.07,3.07,0,0,1,.68-1.67c.81-.06.52,1.58,1.35,1.94l.78-.47c.4,0,.34-.83.34-.83l.41,0a.4.4,0,0,0,.43.38l1.29,1.13s.05.81.08,1.21l0,.41c-.75.86-1.6.11-2.44-.24l-1.21.08a1.45,1.45,0,0,1-1.23-.32l-1.21.09c-.41,0-.41,0-.83-.35l0,.4,0,.41c.42.37.86.75.88,1.15a1.83,1.83,0,0,1,.14,2,.39.39,0,0,0-.37.43Z" transform="translate(-206.7 -71.82)"/><path class="cls-3" d="M366.46,142.67c-1.24-.32-.87-.75-1.33-1.54,0-.4-.42-.37-.45-.78a1.28,1.28,0,0,0-.46-.78c-.4,0-1.18.49-1.58.52l-.38.43-.8.06c-.78.46-3.68-.56-3.73-1.37.34-.84,1-2.51,1.81-3,0,0,.37-.44.4,0a1.47,1.47,0,0,1,.49,1.18c0,.41,0,.41.43.38.46.79.48,1.19,1.26.73l1.21-.08c.32-1.25-1.81-2.73-1.52-4.38.41,0,.38-.43.78-.45a1.4,1.4,0,0,1,.46.78c.4,0,.43.37.46.78s.52,1.59.54,2c.43.38,1.21-.08,1.61-.11l.81-.05-.43-.38c-.44-.38-.46-.78-.86-.75-.06-.82-.12-1.62.69-1.68l.43.38a2.41,2.41,0,0,0,.51,1.59c.43.38.46.78.89,1.16s.86.75,1.26.73c0,.4.52,1.58.14,2l-.8,0c0-.4-.43-.38-.46-.78a12.54,12.54,0,0,0-2.1-1.07c-.34.83.52,1.58,1,2.37a1.28,1.28,0,0,0,.46.78.4.4,0,0,1-.38.43c0,.41-.37.43-.34.84Z" transform="translate(-206.7 -71.82)"/><path class="cls-4" d="M355.85,125.76a2.68,2.68,0,0,1-2-1.68.88.88,0,0,1-.79-.84l-.78-.83V122l0-1.22c0-.81,0-1.62.06-2s.5-3.23.5-3.23c-.39-.42-1.2,0-1.62.36l-1.21,0a1.78,1.78,0,0,1-2,0,2.73,2.73,0,0,1-2-1.68c0-.41-.39-.42-.38-.83-.37-.82.84-.78,1.24-.77l1.17,1.25c1.2.44,3.22.5,4.05-.29v-.4c0-.41,0-.41-.39-.42a7.2,7.2,0,0,0-1.56-2.08l-.39-.41s0-.41,0-.81a.4.4,0,0,1,.41-.4.77.77,0,0,1,1.22-.37c.4,0,.39.42.78.84l.39.41.79.84.8,0c.4.42.38.82,1.19.85a3.16,3.16,0,0,0,1.66-1.58c.43-.8.45-1.61,1.66-1.58a.4.4,0,0,1,.42-.39c.38.42.38.42.79.43a1.52,1.52,0,0,0,.37,1.23c0,.4.39.42.37.82v.41a2.05,2.05,0,0,1-2.06,1.56c-.4,0-.81,0-.81.38-.82.38.78.84.78.84.8,0,2,.86,1.56,1.67h0c-.41.39,0,.81-.44,1.2s-1.2,0-1.6-.45a1.39,1.39,0,0,0-.79-.43c0-.41-1.19-.84-1.6-.45a1.39,1.39,0,0,0-.43.8c-.43.8-.07,2.43-.1,3.65.39.41,0,.8.36,1.22,0,1.22-.06,2-.09,3.25a1.46,1.46,0,0,1,.36,1.22v.41Z" transform="translate(-206.7 -71.82)"/><path class="cls-4" d="M338.91,109.22c-1.6-.19-4-.88-5-2.23-.35-.45-.65-1.3-1-1.75a17.06,17.06,0,0,0-1.12-4.22l.05-.4c-.41-.05-.36-.45-.76-.5a2.2,2.2,0,0,1-2.14,1,6.81,6.81,0,0,1-4-.47c-.35-.45-.75-.5-.71-.9a1.45,1.45,0,0,1,.5-.76c.4.05,1.16.55,1.56.59a7.52,7.52,0,0,0,3.34-.83c.45-.35-.61-1.7-.56-2.1-.4-.05.09-.81.55-1.17.89-.71,2.65,1.54,3.2.38.49-.76.19-1.61.24-2-.36-.45-1.06-1.35-.17-2.06l.8.09a16.13,16.13,0,0,0,2,.64l1.6.19c.8.1,2,.24,2.36.69s.35.45.3.85-.54,1.16-.94,1.11l-.4,0,0,.4c-.4,0-1.25.26-1.65.21s-.75-.49-1.2-.14l-.05.4a.39.39,0,0,0,.35.45c.76.5,2,.64,2.26,1.5.71.89-.54,1.16-.94,1.11-1.25.26-2.35-.69-3.25,0-.4,0-.14,1.21.25,1.26.31.85.22,1.66.57,2.11a4.1,4.1,0,0,0,1.36,2.2,6.79,6.79,0,0,0,2.12,2.7c-.05.41.75.5.71.9l.35.45a.41.41,0,0,0-.45.36Z" transform="translate(-206.7 -71.82)"/><path class="cls-4" d="M282,97.26c-.81,0-1.21,0-1.21-.41-.4-1.62.81-1.62,1.61-1.62a3.11,3.11,0,0,0,1.62-.81.39.39,0,0,0,.4-.41c0-.4-.81-.81-1.21-1.22V92s-.4-.41,0-.41c0-.41.4-.41.81-.41,0-.4.4-.4.8-.81,0-.4.4-.81.81-1.22.4-.81.4-1.62.8-2.43a1.51,1.51,0,0,1,1.22-.4,1.85,1.85,0,0,0,1.21-1.22.4.4,0,0,0-.41-.41,1.46,1.46,0,0,1-1.21.41c-.4.4-.81.4-1.21.81a1.26,1.26,0,0,0-.81.41c-.4,0-.8.4-1.61.81-.4.4-1.61.81-2,1.21a.4.4,0,0,0-.41.41L280,90h-.41l-.41-.41a2.12,2.12,0,0,1-.8-1.62c0-.81,1.62-2.84,2.42-2.84.4-.41.81.4.4.4v.82c.41.4,2.42-.82,2.42-.82.41,0,.41-.4.81-.4-.81,0-.81-.82-1.21-1.22a1.39,1.39,0,0,0-.81-.41.39.39,0,0,0-.4-.4c-.4-.4.81-.81,1.21-1.22a4.39,4.39,0,0,0,2-.4c.41,0,.81.4,1.21.81s.81,1.21.41,1.62a.4.4,0,0,1-.41.4,3.66,3.66,0,0,0,2-.4h.81c.4,0,.81-.41,1.21-.41.8-.4,1.21.41,1.61.81s.81.82.81,1.22c-.81.41-.81.82-1.62.82h-1.61c-.4.4-.4.4-.8.4h-.41c-.4,0,0,.41,0,.81v.41c-.4.4-.8.81-1.21.81-.81.4-1.21,1.22-1.61,1.62l-.41.41c.41,0,2.43-.81,2.83-.41a2.22,2.22,0,0,1-1.21,2h-.41c-.4.4,0,.4,0,.81l-.4.41c1.21,0,2.83-.82,3.63-.41.41,0,.81.41,1.21.81,0,.41,0,1.22-.4,1.22-.4.41-.81,0-1.21,0-.4.41-.81.41-1.61.41-.41,0-.81.4-1.22.4H285.2c-.4,0-.4.41-.8.41s-.81.4-1.21.4a1.47,1.47,0,0,1-1.21.41Z" transform="translate(-206.7 -71.82)"/><path class="cls-4" d="M283.59,90h-.8c0-.41-.41-1.22,0-1.63s.8,0,1.21,0l.8-.4v.4c0,.41,0,.41-.4.41v.81c-.4.41-.4.41-.81.41Z" transform="translate(-206.7 -71.82)"/><path class="cls-4" d="M232.18,146.17c-.4,0-.81-.41-1.21-.41-.4.41-.81,0-.81-.4-.4-.4.41-.81.41-1.22,0,0-.41-2-.41-2.43-.4-.41-.8-.81-1.21-.81-1.61-1.62-1.61,1.62-3.22,1.21-1.21-.4,0-2.43-.41-2.83-.8-1.22-2-.41-2.82-1.22s.4-2.84,1.21-3.25,1.61,0,2,0a3.07,3.07,0,0,1,1.2.82c.41.4.81.81,1.21.81.81.8,2,1.21,2.83,2,0,.41.4.41.81.82v1.21c0,.41.4.81.4,1.22a3.1,3.1,0,0,1,.4,1.62c.41.81.81,2-.4,2.84Z" transform="translate(-206.7 -71.82)"/><path class="cls-4" d="M233,134.81h-.81a5.79,5.79,0,0,0-2.42-.81.39.39,0,0,0-.4-.41c-.41-.4-1.22-.4-1.62-.81l-1.21-1.21h-.8a1.87,1.87,0,0,1-2-1.22c-.4-.41,0-1.21,0-1.62.4-.41.81-.41,1.21-.81,1.21,0,1.21,1.62,2,1.62.41,0,.41-.4.41-.81v-.41a1.29,1.29,0,0,1,1.21-1.21,1.27,1.27,0,0,1,.81.4v.41c.4.81,0,1.62,0,2-.41.41-.41.41-.41.82.41.4.41.4.81.81a.39.39,0,0,1,.4.4,3,3,0,0,0,1.62.81h.8a1.47,1.47,0,0,0,.41-1.21c0-.81.4-1.22.4-1.63a1.44,1.44,0,0,0,.81-.4c.4-.4.8,0,1.2,0,.41.4.81.4.81.81,0,1.22-1.61,3.24-2,4.06-.41,0-1.21,0-1.21.4Z" transform="translate(-206.7 -71.82)"/><path class="cls-4" d="M242.31,124.73h-.81c-.4-.41-1.61-1.63-1.21-2s1.21,0,1.21-.4c0,0,.81-.81.81-.41v.81c.4.81.81,1.63,0,2Z" transform="translate(-206.7 -71.82)"/><path class="cls-4" d="M247.55,115.8h-.81c-.4,0-.4,0-.8-.41h-1.21l-.4-.4a4,4,0,0,1,3.22-2.44.39.39,0,0,0,.4.41c.41.4.81,1.62.41,2a.88.88,0,0,1-.81.81Z" transform="translate(-206.7 -71.82)"/><path class="cls-4" d="M234.65,117.83a1.24,1.24,0,0,1-.81-.41.39.39,0,0,1-.4-.41c-.41-.81.8-1.21,1.21-1.62a3.12,3.12,0,0,1,.8-1.62c0-.41.41-.81.41-1.22a.76.76,0,0,0,0-1.21h-.41c-.4.4-1.61.8-1.61-.41v-1.22c.4,0,.81-.4,1.21-.81.4,0,.4-.41.81-.81.8-.41,1.61.4,1.61,1.22.81,0,.81-.82,1.21-.82l.4-.4c.41-.41,2-2.43,2.42-1.62a.39.39,0,0,1,.41.4c-.41.41-.81.81-.81,1.22-.41.4-.81.4-1.21.81-.81,1.22-2,2-2.42,3.24-.4.82-.4,1.22-.81,1.63v.81a3.12,3.12,0,0,0-.8,1.62c-.41.41,0,.81-.41,1.22,0,.41-.4.41-.8.41Z" transform="translate(-206.7 -71.82)"/><path class="cls-4" d="M245.94,120.66h-.81c-.4,0-2,0-2-.4s.8-.41.8-.81V119c0-.4-1.21-1.21-1.61-1.21-.81,0-.81.81-1.21.81-.81.4-3.23-2-3.23-2.44a4.21,4.21,0,0,0,.81-2c.4-.41.4-.82.8-1.63a1.43,1.43,0,0,0,.41-.81c.4-.4.8-.4.8-.81.41-.41.81-1.22,1.22-.81h.4c.4,0,.4,0,.4.4a4.46,4.46,0,0,1-.4,2v.81c0,.41.81.41.81,1.22V115a.39.39,0,0,1-.41.4,17.8,17.8,0,0,1,2.83,2.44.39.39,0,0,0,.4.4,2.47,2.47,0,0,1,.4,1.62,1.4,1.4,0,0,1-.4.81Zm-5.65-4.46a17.38,17.38,0,0,0,.4-2h-.4v0c-.4.4-1.21,1.62,0,2Z" transform="translate(-206.7 -71.82)"/><path class="cls-4" d="M259.92,96.57l-.41-.41c-.4-.81.41-1.22.81-1.63a1.44,1.44,0,0,1,.4-.81c0-.81-1.21-.4-1.21-.81-.4-.4.41-1.62.41-2a3.09,3.09,0,0,0,1.61-.8,1.09,1.09,0,0,1,1.61.8V92.1h0c.41.41,1.62-1.62,2.42-1.22,0,.41,0,.82-.4.82a1.83,1.83,0,0,1-1.22,1.21,3.19,3.19,0,0,0-1.2.81c-.41,0-.41.41-.81.41a6,6,0,0,1-2,2.44Z" transform="translate(-206.7 -71.82)"/><path class="cls-4" d="M257.9,107.11c-1.62-.41-1.21-2.84-2-2.84l-.4.41a1.39,1.39,0,0,0-.41.81l-.8.41c-.81,0-.81-.82-.81-1.22s0-.81.4-.81c0-.41.41-.41.81-.41a3.11,3.11,0,0,0,.81-1.62c0-.41,0-.41-.41-.81a3.07,3.07,0,0,0-.4-2c-.4-.41-.81-.41-.81-.82-.4-.4-.8-.4-.8-.8-.4-.41.4-1.22.4-1.63.4-.81-.4-2.43.4-2.84.41-.4.41-.4.81-.4s.81-.41,1.21-.41a1.39,1.39,0,0,0,.81.41c0,.4.4.81,0,1.62,0,.4-1.21,1.22-1.62,1.62-.4,0-.4.41-.8.41,0,.41-.41.41-.41.81a.4.4,0,0,0,.41.41c.4.4.4.4.8.4V97c0-.4.41-.81.41-1.22a1.48,1.48,0,0,1,1.21-.4c1.21-.41,1.61,1.22,2,2v.8c.41.82.81,1.22.81,2a1.47,1.47,0,0,1,.41,1.21c.8.81,2,3.25,1.61,4.47,0,.4-.81.4-.81.4-.4-.4-.4-.81-.8-1.22s-1.22-.81-1.62-1.62a.39.39,0,0,1,.4-.4l.81.81h.41c0-.41-.41-1.63-.81-1.63v-.4l-.41-.41c-.4.41-.4.41-.4.81l-.8.82v.81c0,.81.8,2.43.4,3.24Zm-1.21-6.49v-.4c0-.41-.81-1.22,0-1.22h.81c0-.41,0-.82-.41-.82,0-.4-.81-1.21-.81-.8-.4,0-.4.4-.4.8V99.4c0,.41.4,1.22.81,1.22Z" transform="translate(-206.7 -71.82)"/><path class="cls-4" d="M262.74,103.87a1.39,1.39,0,0,1-.81-.41v-.81c0-.81-.4-1.22-.4-1.62V98.59a4,4,0,0,0-.41-1.21.4.4,0,0,0,.41-.41c.4,0,.8-.4,1.21-.4.4-.82.4-2,1.2-2,1.62-.81.82,1.22,1.22,2a2.22,2.22,0,0,0,1.21,2,.39.39,0,0,0,.4.41c.4.4,2.42,0,2.42-.41s-.4-1.21-.4-1.62v-.4a.39.39,0,0,1,.4.4c.4,0,.4.41.81.81L271.21,99c0,.4.4.81,0,1.22,0,.4-.4.4-.81.81a1.27,1.27,0,0,0-.81.4c-.8,0-3.22,0-4-.81l-1.21-2.44c-.41-.4-.41-.8-.8-.8h-.41c-.81.8,0,2,0,2.84.41,1.21.41,2.84-.4,3.65Zm-.41-2.84V99h-.4v.4a2.49,2.49,0,0,0,.4,1.63Z" transform="translate(-206.7 -71.82)"/><path class="cls-4" d="M314.53,86.66c-.81,0-2-.81-2-1.62,0-.41,0-.41.41-.41,0-.4.4-.4.8-.4h2a.39.39,0,0,0,.4.4c.41.81-.8,1.63-1.61,2Z" transform="translate(-206.7 -71.82)"/><path class="cls-4" d="M305.66,84.63h-.4a2.12,2.12,0,0,1,.8-1.62c.4-.41.4-.41.4-.81.41-.41.81-.81,1.21-.81a1.51,1.51,0,0,1,1.22.4s.8,0,.8.41c.41,0,.41.4.41.81-.41,1.62-1.62.81-2.83.81h-.4c-.41.41-.81.81-1.21.81Z" transform="translate(-206.7 -71.82)"/><path class="cls-4" d="M315.74,97.61a3,3,0,0,1-1.61-.81,3.32,3.32,0,0,1-1.62-2.43c0-.81,0-2.43.41-2.84v-.41h-.41a1.22,1.22,0,0,0-.8.41c-.41.81-.81,1.21-1.21,2-.4,0-.4.4-.81.81a1.48,1.48,0,0,1-1.21.4c-.4,0-.81,0-.81-.4-.4-.41,1.22-.81,1.62-.81v-.41c.4-.81.81-1.21,1.21-2,0-.4-.4-1.21,0-1.62h.4c.81,0,.81.81,1.61.81.41,0,.81-.81,1.62-.81.4,0,.81,0,.81.81,0,0-.81.41-.81.81a5.73,5.73,0,0,0-.81,2.44c0,.4,0,.4.4.81,0,.4,1.22,1.22,1.62.81s.4-.81.8-1.22h.41l.4.41s0,2.43-.4,2.43c0,.41-.41.41-.81.81Z" transform="translate(-206.7 -71.82)"/><path class="cls-4" d="M310.5,88.69h-.81l-.4-.4v-.41c.4,0,.4,0,.4-.41h4.44c.81,0,1.21-.4,1.61-.4.4-.41.4-.41.81-.41h.4a.78.78,0,0,1,.41,1.22c-.41,0-1.22.41-1.62.41h-2a2.43,2.43,0,0,1-1.61.4H310.5Z" transform="translate(-206.7 -71.82)"/><path class="cls-4" d="M306.06,96h-.4c-.4-.4-1.21-3.25-.4-3.25h0l.4.82c.4-.41.8-2,.4-2.44a10.26,10.26,0,0,0-2,.82c-.81.4-1.62,2.43-2.43,2.43V93.15c.41-.41.81-.41,1.21-1.21-.4-.41-.8,0-1.21,0h-.4c-.81-.41,0-2,.4-2.44s.81.41,1.21.41h.81a.4.4,0,0,0,.41-.41,3.07,3.07,0,0,0,.4-2c.4-.4.4-1.21.81-1.62,0-.41,0-.41.4-.41.4.41,0,1.22,0,2h.8l.41.41h.4l.4-1.22a2,2,0,0,0-1.21-.4v-.41l.41-.41c.8,0,1.61-.4,2,.41v.81l-.41.41c0,.4-.4,1.21-.4,1.62a.87.87,0,0,0-.81.81h.4a.4.4,0,0,1,.41.41v.4c-.41.41-.81.41-.81.81v.82c0,.4-.4.8-.4,1.21,0,1.22,0,2-.81,2.84Zm-.4-6.08V88.28h-.4a1.48,1.48,0,0,1-.41,1.22v.41Z" transform="translate(-206.7 -71.82)"/><path class="cls-4" d="M297.64,101.89a60.88,60.88,0,1,1-60.88,60.87,61,61,0,0,1,60.88-60.87Zm0,2.24A58.63,58.63,0,1,1,239,162.76a58.75,58.75,0,0,1,58.63-58.63Z" transform="translate(-206.7 -71.82)"/><path class="cls-4" d="M297.64,71.82a90.95,90.95,0,1,1-90.94,90.94,91.12,91.12,0,0,1,90.94-90.94Zm0,3.44a87.51,87.51,0,1,1-87.51,87.5,87.67,87.67,0,0,1,87.51-87.5Z" transform="translate(-206.7 -71.82)"/><path class="cls-1" d="M220.46,178.74l.73.38a2.78,2.78,0,0,0-.41,2.13c.22.91.8,1.36,1.49,1.19s.82-.72,1-1.45l.19-1.11a1.91,1.91,0,0,1,3.82-.08,2.93,2.93,0,0,1-.37,2.25l-.67-.33a2.32,2.32,0,0,0,.27-1.74c-.18-.79-.7-1.21-1.33-1.06s-.79.83-.88,1.43l-.19,1.09a2,2,0,0,1-1.52,1.88,2.17,2.17,0,0,1-2.54-1.89A3.45,3.45,0,0,1,220.46,178.74Z" transform="translate(-206.7 -71.82)"/><path class="cls-1" d="M224.45,183.94c2.2-.71,4,.14,4.52,1.87a2.62,2.62,0,0,1-.24,2.13l-.71-.28a1.93,1.93,0,0,0,.2-1.6c-.42-1.29-1.76-1.8-3.45-1.25s-2.53,1.73-2.11,3a2.19,2.19,0,0,0,1.28,1.33l-.39.65A2.79,2.79,0,0,1,221.9,188C221.35,186.36,222.24,184.66,224.45,183.94Z" transform="translate(-206.7 -71.82)"/><path class="cls-1" d="M229.88,188.88l.35.83-2.75,1.18,1.31,3.06,2.75-1.17.35.82-6.57,2.81-.35-.83,3.1-1.32-1.31-3.07-3.1,1.33-.36-.84Z" transform="translate(-206.7 -71.82)"/><path class="cls-1" d="M229.31,196.46c2-1.1,3.84-.66,4.7.91s.24,3.35-1.78,4.45-3.87.67-4.73-.9S227.3,197.55,229.31,196.46Zm2.48,4.54c1.58-.86,2.14-2.13,1.53-3.25s-2-1.34-3.56-.48-2.18,2.14-1.56,3.27S230.22,201.86,231.79,201Z" transform="translate(-206.7 -71.82)"/><path class="cls-1" d="M232.86,202.84c1.9-1.28,3.76-1,4.76.46s.56,3.32-1.34,4.6-3.79,1-4.8-.44S231,204.13,232.86,202.84Zm2.9,4.29c1.49-1,1.92-2.32,1.21-3.38s-2.11-1.15-3.59-.14-2,2.34-1.25,3.41S234.28,208.13,235.76,207.13Z" transform="translate(-206.7 -71.82)"/><path class="cls-1" d="M240,206.93l.57.7-5,4,2,2.43-.6.49-2.52-3.14Z" transform="translate(-206.7 -71.82)"/><path class="cls-1" d="M241.84,214.62c1.62-1.63,3.49-1.73,4.76-.47s1.19,3.14-.43,4.77-3.52,1.76-4.79.49S240.22,216.24,241.84,214.62Zm3.67,3.65c1.27-1.28,1.44-2.66.54-3.56s-2.29-.71-3.55.56-1.48,2.67-.56,3.58S244.25,219.53,245.51,218.27Z" transform="translate(-206.7 -71.82)"/><path class="cls-1" d="M249.67,217.24l3.16,2.65-.49.58-2.46-2.07-1.56,1.86,2.09,1.75-.49.59-2.09-1.76-2.06,2.45-.7-.58Z" transform="translate(-206.7 -71.82)"/><path class="cls-1" d="M251.44,226.63l.79-.21a2.86,2.86,0,0,0,1.14,1.85c.77.52,1.5.45,1.9-.13s.11-1.09-.27-1.72l-.61-.95a2,2,0,0,1-.17-2.33,2,2,0,0,1,2.93-.31,3,3,0,0,1,1.25,1.92l-.72.21a2.36,2.36,0,0,0-1-1.48c-.67-.45-1.34-.41-1.7.13s0,1.14.31,1.64l.6.94a2,2,0,0,1,.15,2.41,2.16,2.16,0,0,1-3.15.31A3.41,3.41,0,0,1,251.44,226.63Z" transform="translate(-206.7 -71.82)"/><path class="cls-1" d="M257.91,227.77c1.12-2,2.9-2.6,4.46-1.72s2,2.7.87,4.7-2.92,2.64-4.48,1.76S256.79,229.77,257.91,227.77Zm4.52,2.53c.88-1.57.67-2.94-.44-3.56s-2.39-.08-3.27,1.49-.7,3,.42,3.6S261.56,231.86,262.43,230.3Z" transform="translate(-206.7 -71.82)"/><path class="cls-1" d="M266.15,228.18l3.75,1.71-.31.69-2.93-1.33-1,2.2,2.48,1.13-.31.69-2.49-1.12L264,235.07l-.83-.38Z" transform="translate(-206.7 -71.82)"/><path class="cls-1" d="M272,231.49l-2-.74.26-.72,4.92,1.8-.26.72-2-.75-2.2,6-.85-.31Z" transform="translate(-206.7 -71.82)"/><path class="cls-1" d="M275.4,232l.91.23-.26,4c-.06.78-.11,1.56-.18,2.34h0l1.09-2.11,1.93-3.51.79.2v4c0,.78-.06,1.57-.1,2.37h.05c.33-.72.66-1.43,1-2.14l1.71-3.57.84.22L280,240.55l-1-.27,0-4.45c0-.58.05-1.1.07-1.66h0c-.25.5-.5,1-.76,1.49l-2.11,3.9-1-.27Z" transform="translate(-206.7 -71.82)"/><path class="cls-1" d="M286.62,239.52l-2.59-.41-1,2-.91-.14,3.52-6.68,1,.16,1.27,7.44-.94-.15Zm-.11-.75-.17-1.13c-.13-.84-.23-1.64-.33-2.5h0c-.35.8-.7,1.52-1.08,2.28l-.52,1Z" transform="translate(-206.7 -71.82)"/><path class="cls-1" d="M293.15,242.37l-1.49-3.16-1.29-.1-.23,3-.91-.07.56-7.12,2.23.17c1.45.11,2.45.71,2.34,2.2a2,2,0,0,1-1.77,1.88l1.58,3.26Zm-2.72-4,1.2.09c1.11.09,1.76-.31,1.83-1.23s-.51-1.32-1.63-1.41l-1.19-.09Z" transform="translate(-206.7 -71.82)"/><path class="cls-1" d="M295.88,235.3l4.12.06v.76l-3.22-.05,0,2.24,2.71,0v.77l-2.71,0,0,2.61,3.33,0v.78l-4.23-.06Z" transform="translate(-206.7 -71.82)"/><path class="cls-1" d="M303.29,235.14l2.11-.23c1.45-.16,2.5.22,2.63,1.47a1.56,1.56,0,0,1-.88,1.66v.05a1.65,1.65,0,0,1,1.64,1.54c.15,1.39-.89,2.2-2.47,2.37l-2.27.25Zm2.28,2.81c1.23-.13,1.67-.64,1.6-1.36s-.7-1.08-1.81-1l-1.09.12.25,2.32Zm.55,3.35c1.22-.13,1.89-.65,1.79-1.61s-.84-1.2-2.08-1.07l-1.24.14.29,2.67Z" transform="translate(-206.7 -71.82)"/><path class="cls-1" d="M309.42,234.39l4.06-.77.14.75-3.16.6.42,2.21,2.66-.51.14.76-2.66.5.49,2.56,3.26-.62.15.76-4.16.79Z" transform="translate(-206.7 -71.82)"/><path class="cls-1" d="M314.87,233.26l.88-.22,1.74,6.94-.88.22Z" transform="translate(-206.7 -71.82)"/><path class="cls-1" d="M317.46,232.62l.87-.28.92,2.85,3.17-1-.92-2.85.86-.28,2.19,6.81-.85.27-1-3.21-3.17,1,1,3.21-.86.28Z" transform="translate(-206.7 -71.82)"/><path class="cls-1" d="M328.89,233.73l-2.41,1,.21,2.28-.84.35-.54-7.53.93-.39,5,5.65-.88.37Zm-.49-.58-.73-.87c-.56-.65-1.07-1.28-1.61-1.95h0c.11.87.2,1.67.28,2.51l.1,1.14Z" transform="translate(-206.7 -71.82)"/><path class="cls-1" d="M329.15,228.18l.83-.44,4.4,2.77,1.36,1,.05,0c-.38-.62-.82-1.29-1.16-1.95l-1.73-3.28.75-.4,3.34,6.32-.82.43-4.41-2.78-1.37-.94,0,0c.37.62.78,1.26,1.13,1.92l1.75,3.32-.76.4Z" transform="translate(-206.7 -71.82)"/><path class="cls-1" d="M336.72,228.16c-1.26-1.93-.86-3.86.72-4.89a2.67,2.67,0,0,1,2.21-.38l-.09.75a2,2,0,0,0-1.67.28c-1.2.78-1.38,2.22-.41,3.72s2.31,2,3.59,1.16a1.94,1.94,0,0,0,.86-1.06l-1-1.57-1.26.82-.41-.62,2-1.28,1.63,2.52a3.05,3.05,0,0,1-1.4,1.9C339.85,230.53,338,230.11,336.72,228.16Z" transform="translate(-206.7 -71.82)"/><path class="cls-1" d="M344.83,223.33l-2.69-3.22.7-.58,2.7,3.24c1.11,1.33,2,1.27,2.73.67s1-1.5-.14-2.83l-2.71-3.24.66-.55,2.69,3.21c1.48,1.77,1.13,3.08,0,4S346.31,225.1,344.83,223.33Z" transform="translate(-206.7 -71.82)"/><path class="cls-1" d="M347.3,215.7,348,215l5,1.33,1.58.5,0,0c-.55-.48-1.16-1-1.69-1.52l-2.64-2.61.61-.61,5.07,5-.65.66-5-1.33-1.59-.49,0,0c.54.48,1.13,1,1.66,1.5l2.67,2.65-.61.61Z" transform="translate(-206.7 -71.82)"/><path class="cls-1" d="M352,210.75l.59-.68,5.39,4.69-.59.68Z" transform="translate(-206.7 -71.82)"/><path class="cls-1" d="M353.21,209.47l.58-.75,3.77,1.46c.82.32,1.46.6,2.29.9l0,0c-.5-.72-.93-1.28-1.44-2l-2.35-3.29.57-.72,4.24,6.18-.64.83Z" transform="translate(-206.7 -71.82)"/><path class="cls-1" d="M357.06,204.41l2.28-3.44.63.42-1.78,2.69,1.87,1.24,1.5-2.26.65.42-1.5,2.26,2.17,1.44,1.83-2.77.65.43L363,208.36Z" transform="translate(-206.7 -71.82)"/><path class="cls-1" d="M368.21,199.83l-3.49,0-.63,1.12,2.65,1.47-.44.8-6.25-3.47,1.09-2c.71-1.27,1.67-1.94,3-1.21a1.93,1.93,0,0,1,1,2.39l3.63-.08Zm-4.76.82.59-1.05c.54-1,.45-1.74-.36-2.19s-1.42-.08-2,.9l-.59,1.05Z" transform="translate(-206.7 -71.82)"/><path class="cls-1" d="M368.26,197.72l-.34-.74a2.81,2.81,0,0,0,1.63-1.43c.39-.85.2-1.56-.44-1.86s-1.09.07-1.64.56l-.84.75a1.91,1.91,0,0,1-3.07-2.28,3,3,0,0,1,1.69-1.55l.32.68a2.36,2.36,0,0,0-1.29,1.2c-.34.74-.18,1.39.4,1.65s1.13-.17,1.58-.58l.82-.74a2,2,0,0,1,2.35-.55,2.16,2.16,0,0,1,.84,3A3.39,3.39,0,0,1,368.26,197.72Z" transform="translate(-206.7 -71.82)"/><path class="cls-1" d="M365.09,189.49l.33-.84,6.66,2.59-.33.85Z" transform="translate(-206.7 -71.82)"/><path class="cls-1" d="M367.24,185.79l-.67,2.06-.72-.23,1.61-5,.73.23-.67,2.06,6.08,2-.28.86Z" transform="translate(-206.7 -71.82)"/><path class="cls-1" d="M372.2,181.66l-4.76,1,.23-.94,2.18-.41c.57-.1,1.11-.19,1.69-.31v0c-.46-.37-.89-.73-1.35-1.06l-1.74-1.38.23-.91,3.73,3.13,2.69.66-.21.88Z" transform="translate(-206.7 -71.82)"/></svg>